<?xml version="1.0" encoding="UTF-8"?>
<svg version="1.1" xmlns="http://www.w3.org/2000/svg" width="512" height="512">
<path d="M0 0 C0.97839844 0.42925781 1.95679688 0.85851562 2.96484375 1.30078125 C18.98814334 8.77551365 32.2823449 20.05343247 43 34 C43.59683594 34.76957031 44.19367188 35.53914063 44.80859375 36.33203125 C54.26482083 49.15144301 60.99420112 63.61921478 65 79 C65.21027832 79.79470703 65.42055664 80.58941406 65.63720703 81.40820312 C72.76112855 110.08438443 71.13274485 144.0929468 66 173 C65.83371094 173.99161133 65.66742188 174.98322266 65.49609375 176.00488281 C56.08779583 231.25249891 31.77447312 286.93538489 -7 328 C-8.04619229 329.22531703 -9.08790172 330.45447636 -10.125 331.6875 C-13.81570866 335.92919123 -17.78380522 339.89328656 -21.75 343.875 C-22.41273926 344.54233154 -23.07547852 345.20966309 -23.75830078 345.8972168 C-24.38978027 346.52668213 -25.02125977 347.15614746 -25.671875 347.8046875 C-26.52410645 348.65522705 -26.52410645 348.65522705 -27.39355469 349.52294922 C-29.94946687 351.87299006 -31.74788181 352.95550856 -35.1875 353.5625 C-40.74425101 352.74265149 -43.0802561 349.84225308 -47 346 C-48.04682163 345.04382399 -49.09790591 344.09230177 -50.15234375 343.14453125 C-55.37579196 338.43693254 -60.42858893 333.76528487 -64.90625 328.328125 C-66.77314755 326.25224638 -68.6979366 324.34541938 -70.71875 322.421875 C-71.3988916 321.76807861 -72.0790332 321.11428223 -72.77978516 320.44067383 C-74.15264721 319.12812044 -75.53743326 317.82790125 -76.93505859 316.54174805 C-79.90704701 313.6835469 -81.78359387 311.54810005 -83.3125 307.67578125 C-82.83941402 302.1111074 -80.1134661 298.37093752 -77.125 293.75 C-75.91202568 291.78229703 -74.70506531 289.81087512 -73.50390625 287.8359375 C-72.90594238 286.85334961 -72.30797852 285.87076172 -71.69189453 284.85839844 C-59.43078722 264.14367342 -54.27284704 242.78790041 -52 219 C-53.47146484 218.85304688 -53.47146484 218.85304688 -54.97265625 218.703125 C-86.13152135 215.35744186 -114.03708703 201.62944238 -134.27734375 177.2578125 C-154.84750504 150.74516017 -162.20897794 120.38136619 -158.69091797 87.07373047 C-154.4920914 58.07876846 -137.8944572 32.28555414 -115.4375 13.90234375 C-113.01387969 12.15239422 -110.55154385 10.55738677 -108 9 C-106.95457031 8.34515625 -105.90914062 7.6903125 -104.83203125 7.015625 C-73.59789764 -12.03526764 -33.49314304 -15.20793845 0 0 Z M-111 33 C-111.80179688 33.7321875 -112.60359375 34.464375 -113.4296875 35.21875 C-118.76927496 40.32461814 -123.00744986 45.79901029 -127 52 C-127.51304688 52.75667969 -128.02609375 53.51335937 -128.5546875 54.29296875 C-141.8040824 74.78490852 -145.66530925 101.52696891 -140.81713867 125.26977539 C-136.97149539 141.31282426 -129.65328168 155.48029692 -119 168 C-118.46890625 168.67675781 -117.9378125 169.35351562 -117.390625 170.05078125 C-101.61008457 189.54209232 -77.16540457 198.85535276 -53 202 C-50.06260306 202.22464449 -47.14421723 202.42674528 -44.19921875 202.49609375 C-41.06954705 203.21319437 -39.92843546 204.45969772 -38 207 C-30.2112567 234.44429832 -42.27145203 267.4388684 -55.48583984 291.32250977 C-56.4761537 293.07368229 -57.47864259 294.81803944 -58.49462891 296.55444336 C-58.95015137 297.34085205 -59.40567383 298.12726074 -59.875 298.9375 C-60.28492187 299.62714844 -60.69484375 300.31679688 -61.1171875 301.02734375 C-62.2723233 303.24831215 -62.2723233 303.24831215 -62 307 C-60.16584345 309.1831266 -58.35586363 311.10893787 -56.3125 313.078125 C-55.73540283 313.64956238 -55.15830566 314.22099976 -54.5637207 314.80975342 C-52.71831878 316.63276453 -50.85949862 318.44138079 -49 320.25 C-47.74648677 321.48345184 -46.49387089 322.71781632 -45.2421875 323.953125 C-42.17177064 326.97943861 -39.0892462 329.9929146 -36 333 C-35.22366211 332.22221191 -34.44732422 331.44442383 -33.64746094 330.64306641 C-31.98954458 328.98790203 -30.32203052 327.34223491 -28.640625 325.7109375 C-22.60691462 319.81525317 -17.20484678 313.63327814 -12 307 C-11.19691406 305.99066406 -10.39382812 304.98132813 -9.56640625 303.94140625 C29.40377098 254.54506439 52.46701298 192.36658228 52.31567383 129.31420898 C52.31250611 126.56779471 52.33612389 123.82245499 52.36132812 121.07617188 C52.46262173 92.78238673 46.32386445 65.27155518 28 43 C27.18917969 42.01386719 26.37835938 41.02773437 25.54296875 40.01171875 C10.23631566 22.07503693 -11.58869029 10.65080438 -35 8 C-63.13391912 6.45895244 -89.93297981 13.71608183 -111 33 Z " fill="#fff" transform="translate(159,84)"/>
<path d="M0 0 C1.54897443 1.30386755 3.09115475 2.61586801 4.625 3.9375 C5.30949219 4.48921875 5.99398437 5.0409375 6.69921875 5.609375 C31.03849634 25.69286535 43.48541442 58.32851813 46.625 88.9375 C47.11653063 96.6385744 47.06190177 104.34960128 47 112.0625 C46.99534729 113.09719421 46.99069458 114.13188843 46.98590088 115.19793701 C46.90456351 130.63743757 46.42944296 145.718023 43.625 160.9375 C43.42100586 162.08234863 43.21701172 163.22719727 43.00683594 164.40673828 C40.05236482 180.66062999 36.13847573 196.36569971 30.625 211.9375 C30.24625732 213.02393799 30.24625732 213.02393799 29.85986328 214.13232422 C14.13529669 258.93210814 -11.49250649 297.99846243 -44.875 331.5625 C-45.47465576 332.16682861 -46.07431152 332.77115723 -46.69213867 333.39379883 C-47.25779541 333.95736084 -47.82345215 334.52092285 -48.40625 335.1015625 C-48.90705078 335.60123535 -49.40785156 336.1009082 -49.92382812 336.61572266 C-52.43057349 338.8989527 -54.21182931 339.90870517 -57.5625 340.5 C-61.56814266 339.90900354 -62.25474195 339.50492917 -65.08813477 336.91259766 C-66.13700363 335.95670746 -66.13700363 335.95670746 -67.20706177 334.98150635 C-70.77245857 331.61992824 -74.29454128 328.22056494 -77.77734375 324.7734375 C-78.92209923 323.64078964 -78.92209923 323.64078964 -80.08998108 322.48526001 C-81.68717387 320.90179491 -83.28289574 319.31684486 -84.87719727 317.73046875 C-86.50883988 316.11043983 -88.14496344 314.49491225 -89.78540039 312.88378906 C-92.16750173 310.54416169 -94.53625376 308.19174295 -96.90234375 305.8359375 C-97.6376683 305.11812103 -98.37299286 304.40030457 -99.13059998 303.66073608 C-99.80542923 302.98298126 -100.48025848 302.30522644 -101.17553711 301.60693359 C-101.7709581 301.01737885 -102.36637909 300.4278241 -102.97984314 299.82040405 C-104.69976307 297.49919968 -105.1142121 295.80203023 -105.375 292.9375 C-103.64753659 287.97745655 -101.12004044 283.7381551 -98.3125 279.3125 C-84.32158892 256.5496022 -75.86791309 232.65549638 -74.375 205.9375 C-75.84646484 205.79054688 -75.84646484 205.79054688 -77.34765625 205.640625 C-109.62395294 202.17495764 -136.68714461 187.89099418 -157.48242188 163.00024414 C-177.58605243 137.94842617 -183.80081814 107.10005286 -181.17285156 75.50732422 C-180.62703406 71.19948535 -179.59771936 67.09750383 -178.375 62.9375 C-178.17100586 62.22835449 -177.96701172 61.51920898 -177.75683594 60.78857422 C-170.14400091 34.77528424 -154.02163721 10.11828396 -130.375 -4.0625 C-128.81072266 -5.04089844 -128.81072266 -5.04089844 -127.21484375 -6.0390625 C-88.53856602 -29.6594752 -35.98664853 -28.36142879 0 0 Z M-141.6027832 28.31738281 C-160.16588481 49.93446996 -165.97925274 76.17675767 -164.375 103.9375 C-161.77444316 127.86530388 -148.66878176 151.20286066 -130.16821289 166.45825195 C-123.95223541 171.369255 -117.55818776 175.55368428 -110.375 178.9375 C-109.27414062 179.46085938 -108.17328125 179.98421875 -107.0390625 180.5234375 C-97.7106919 184.74488557 -88.68582328 187.48326292 -78.4765625 188.41796875 C-77.19688599 188.53543457 -77.19688599 188.53543457 -75.89135742 188.65527344 C-74.20296469 188.79912968 -72.51284264 188.92421933 -70.8215332 189.02832031 C-67.09568057 189.32320806 -64.95899569 189.50801026 -61.89453125 191.76171875 C-55.14500679 201.42620493 -58.0701983 217.31146588 -59.69140625 228.16796875 C-63.72405593 250.40515127 -72.50695745 272.33060629 -85.375 290.9375 C-83.75343976 295.03858886 -80.7982297 297.76898167 -77.7109375 300.796875 C-77.15886627 301.34611633 -76.60679504 301.89535767 -76.03799438 302.46124268 C-74.27998185 304.20809293 -72.5151311 305.94784601 -70.75 307.6875 C-69.5542292 308.87323591 -68.35891135 310.0594288 -67.1640625 311.24609375 C-64.23959747 314.14855085 -61.30898126 317.0446641 -58.375 319.9375 C-14.88595411 283.70176715 13.06696667 224.32759574 24.625 169.9375 C24.77952637 169.21191895 24.93405273 168.48633789 25.09326172 167.73876953 C28.65335665 150.69116085 29.978225 133.94942606 29.94067383 116.56323242 C29.93750755 113.5072883 29.96109766 110.4523103 29.98632812 107.39648438 C30.03606069 92.20981301 29.06265979 77.19184012 23.9375 62.75 C23.68258789 62.01499268 23.42767578 61.27998535 23.16503906 60.52270508 C13.77963774 34.51662143 -4.51274142 14.62299791 -29.41015625 2.73046875 C-34.60320835 0.33262148 -39.8508867 -1.57373188 -45.375 -3.0625 C-46.17035156 -3.28679687 -46.96570313 -3.51109375 -47.78515625 -3.7421875 C-82.0924517 -11.68016711 -118.56767077 2.69232722 -141.6027832 28.31738281 Z " fill="#fff" transform="translate(465.375,97.0625)"/>
</svg>
